<svg id="Layer_1" data-name="Layer 1" xmlns="http://www.w3.org/2000/svg" viewBox="0 0 700 140"><defs><style>.cls-1{fill:#00ced1;}.cls-2{fill:#001464;}</style></defs><title>Artboard 1</title><path class="cls-1" d="M79.49,31.29V108H66.17V95.86c-6.23,8.69-16.07,13-27.37,13C16.36,108.89,0,93.11,0,69.66s16.36-39.1,38.8-39.1c10.86,0,20.42,4.06,26.79,12.31V31.29ZM65.73,69.66c0-16.37-11.15-26.93-25.77-26.93C25.19,42.73,14,53.29,14,69.66S25.19,96.73,40,96.73C54.58,96.73,65.73,86,65.73,69.66Z"/><path class="cls-1" d="M179.28,33.21v67c0,27.36-13.91,39.79-40.26,39.79-14.2,0-28.55-3.95-37-11.56l6.74-10.82c7.17,6.14,18.44,10.09,29.86,10.09,18.3,0,26.65-8.48,26.65-26V95.53c-6.74,8-16.84,12-28,12-22.39,0-39.38-15.21-39.38-37.59s17-37.45,39.38-37.45c11.57,0,22.11,4.24,28.7,12.72v-12ZM165.52,69.93c0-15.07-11.13-25.16-26.64-25.16-15.67,0-26.8,10.09-26.8,25.16,0,14.92,11.13,25.3,26.8,25.3C154.39,95.23,165.52,84.85,165.52,69.93Z"/><path class="cls-1" d="M202.13,9.22A9.25,9.25,0,0,1,211.64,0c5.42,0,9.52,4,9.52,8.92a9.2,9.2,0,0,1-9.52,9.37C206.23,18.29,202.13,14.34,202.13,9.22Zm2.49,24h14v77.53h-14Z"/><path class="cls-1" d="M244,87.92V2.19h14.06V86.75c0,8.34,3.95,13,12,13A17.9,17.9,0,0,0,277,98.31l.73,11.55a30,30,0,0,1-10.1,1.76C252.49,111.62,244,102.84,244,87.92Z"/><path class="cls-1" d="M428.78,106.21c-4.25,3.65-10.69,5.41-17,5.41-15.66,0-24.59-8.63-24.59-24.28V16.24h14.05v17h22.26V44.77H401.25v42c0,8.34,4.25,13,12.16,13a17.69,17.69,0,0,0,11-3.66Z"/><path class="cls-1" d="M517.94,66.12v44.62H503.89v-43c0-15.21-7.62-22.67-20.94-22.67-14.93,0-24.59,8.92-24.59,25.75v39.93H444.3V2.19h14.06v42c5.85-7.46,15.52-11.7,27.37-11.7C504.62,32.48,517.94,43.3,517.94,66.12Z"/><path class="cls-1" d="M531.75,72c0-23.12,17.13-39.5,40.4-39.5S612.42,48.86,612.42,72s-17,39.64-40.27,39.64S531.75,95.09,531.75,72Zm66.46,0c0-16.54-11.12-27.21-26.06-27.21S546,55.44,546,72s11.27,27.35,26.2,27.35S598.21,88.51,598.21,72Z"/><path class="cls-1" d="M700,66.12v44.62H686v-43c0-15.21-7.62-22.67-20.94-22.67-14.93,0-24.59,8.92-24.59,25.75v39.93H626.36V33.21h13.47v11.7c5.71-7.9,15.67-12.43,28-12.43C686.68,32.48,700,43.3,700,66.12Z"/><path class="cls-2" d="M326,32.47a39.58,39.58,0,1,0,27.41,68.13v11h12.19V72.05A39.59,39.59,0,0,0,326,32.47Zm27.41,39.58A27.42,27.42,0,1,1,326,44.65,27.4,27.4,0,0,1,353.45,72.05Z"/><path class="cls-2" d="M365.64,44.65V32.47H353.45A48.29,48.29,0,0,1,365.64,44.65Z"/></svg>